<svg xmlns="http://www.w3.org/2000/svg" width="85" height="151" viewBox="0 0 85 151">
    <g fill="none" fill-rule="evenodd">
        <path fill="#191919" d="M0 0h84.656v150.655H0z"/>
        <path fill="#FFF" d="M46.463 118.118c0-.758-.152-1.317-.454-1.676-.303-.359-.818-.539-1.545-.539H42.89v8.645h1.605c.666 0 1.16-.175 1.484-.523.322-.349.484-.912.484-1.692v-4.215zm-5.875 20.734v-25.317h3.876c1.454 0 2.53.364 3.225 1.092.697.728 1.046 1.892 1.046 3.491v4.153c0 1.6-.344 2.759-1.03 3.476-.687.719-1.757 1.078-3.21 1.078H42.89v12.027h-2.302zm17.898-20.734c0-.758-.152-1.317-.454-1.676-.303-.359-.818-.539-1.545-.539h-1.575v8.645h1.605c.666 0 1.16-.175 1.484-.523.323-.349.485-.912.485-1.692v-4.215zm-5.876 20.734v-25.317h3.877c1.454 0 2.529.364 3.225 1.092.696.728 1.045 1.892 1.045 3.491v4.153c0 1.6-.343 2.759-1.03 3.476-.686.719-1.756 1.078-3.21 1.078h-1.605v12.027H52.61zm16.445-6.398c-.263-2.174-.525-4.322-.787-6.445a425.084 425.084 0 0 1-.757-6.537 602.68 602.68 0 0 1-.803 6.537c-.273 2.123-.55 4.271-.833 6.445h3.18zm.818 6.399l-.545-4.246h-3.725l-.546 4.246h-2.24l3.422-25.319h2.695l3.24 25.319h-2.301zm-58.06-31.43v-20.96h5.774v1.961h-3.762v7.36h2.65v1.936h-2.65v7.794h3.894v1.91h-5.907zm13.673-6.12c0-.325-.009-.591-.025-.796a2.315 2.315 0 0 0-.101-.54 1.766 1.766 0 0 0-.203-.424 7.307 7.307 0 0 0-.303-.424 15.542 15.542 0 0 0-.759-.86c-.253-.266-.514-.531-.784-.797s-.543-.548-.821-.847c-.28-.3-.57-.639-.874-1.016-.336-.393-.535-.8-.594-1.22-.059-.42-.088-.929-.088-1.529v-3.16c0-2.329 1.079-3.494 3.237-3.494 1.164 0 1.981.287 2.453.86.472.574.709 1.452.709 2.634v3.854h-1.796v-3.597c0-.53-.089-.959-.266-1.285-.177-.325-.527-.488-1.05-.488-.893 0-1.34.506-1.34 1.516v3.135c0 .445.03.77.09.976.058.205.18.428.366.668.505.65 1.024 1.225 1.555 1.721.531.497 1.066 1.071 1.606 1.722.186.223.337.445.455.668.118.223.211.462.279.72.067.256.113.547.138.873.026.325.039.693.039 1.104v3.032c0 1.13-.25 1.996-.746 2.595-.498.6-1.328.9-2.492.9-1.13 0-1.952-.3-2.466-.9-.515-.6-.771-1.464-.771-2.595v-4.496h1.846v4.213c0 .55.097.994.29 1.337.195.343.545.513 1.05.513.49 0 .84-.132 1.05-.397.21-.266.316-.656.316-1.17v-3.006zm6.855 6.27V88.404h-2.327v-1.978h6.55v1.978h-2.327v19.167h-1.896zm9.23-23.586l2.834-4.136h2.25l-3.414 4.136h-1.67zm2.632 2.44h1.922v17.78c0 2.397-1.088 3.596-3.263 3.596-2.176 0-3.263-1.199-3.263-3.596v-17.78h1.922v17.78c0 1.113.447 1.67 1.341 1.67.893 0 1.34-.557 1.34-1.67v-17.78zm10.217 3.648c0-.53-.114-.942-.341-1.233-.228-.29-.57-.437-1.025-.437h-1.315v17.24h1.315c.91 0 1.366-.556 1.366-1.67v-13.9zm-4.603 17.497V86.427h3.237c1.113 0 1.939.321 2.479.964.54.642.81 1.528.81 2.659v13.925c0 2.398-1.097 3.597-3.289 3.597h-3.237zm10.192 0V86.427h1.922v21.145H60.01zm10.218-17.78c0-1.078-.455-1.618-1.366-1.618-.893 0-1.34.54-1.34 1.619v14.414c0 1.113.447 1.67 1.34 1.67.911 0 1.366-.557 1.366-1.67V89.793zm-4.629 0c0-2.397 1.089-3.596 3.263-3.596 2.192 0 3.288 1.2 3.288 3.597v14.414c0 2.397-1.096 3.596-3.288 3.596-2.174 0-3.263-1.199-3.263-3.596V89.793zm-44.027 49.06v-7.66a986.868 986.868 0 0 1 .061-10.952l-2.696 18.613h-2.03l-2.664-18.612a1022.432 1022.432 0 0 1 .061 10.952v7.66h-2.12v-25.319h3.089l2.634 19.781 2.635-19.78h3.18v25.318h-2.15zm12.082-6.398c-.262-2.174-.525-4.322-.787-6.445a433.15 433.15 0 0 1-.757-6.537c-.263 2.236-.53 4.415-.803 6.537-.272 2.123-.55 4.271-.833 6.445h3.18zm.818 6.399l-.545-4.246H30.2l-.545 4.246h-2.241l3.422-25.319h2.695l3.241 25.319h-2.302z"/>
    </g>
</svg>
